<svg version="1.1" xmlns="http://www.w3.org/2000/svg" viewBox="-1908.7360137939454 -1281.0240356445313 8928.256494140625 1978.368017578125"><desc>Created with Snap</desc><defs></defs><g><g transform="matrix(56.832,0,0,56.832,-1601.536,-973.824)"><g><path d="M18.5,14h-1c-0.276,0-0.5,0.224-0.5,0.5v4c0,0.276,0.224,0.5,0.5,0.5s0.5-0.224,0.5-0.5V17h0.5c0.827,0,1.5-0.673,1.5-1.5   S19.327,14,18.5,14z M18.5,16H18v-1h0.5c0.276,0,0.5,0.224,0.5,0.5S18.776,16,18.5,16z" style="" fill="#7adac0"></path><path d="M22.5,14h-1c-0.276,0-0.5,0.224-0.5,0.5v4c0,0.276,0.224,0.5,0.5,0.5s0.5-0.224,0.5-0.5V17h0.5c0.827,0,1.5-0.673,1.5-1.5   S23.327,14,22.5,14z M22.5,16H22v-1h0.5c0.276,0,0.5,0.224,0.5,0.5S22.776,16,22.5,16z" style="" fill="#7adac0"></path><path d="M13.532,14.324l-1.5,4c-0.097,0.259,0.034,0.547,0.292,0.644c0.259,0.096,0.547-0.034,0.644-0.292L13.221,18h1.557   l0.253,0.676C15.107,18.876,15.298,19,15.5,19c0.059,0,0.118-0.01,0.177-0.032c0.258-0.097,0.389-0.385,0.292-0.644l-1.5-4   C14.322,13.934,13.678,13.934,13.532,14.324z M13.596,17L14,15.924L14.404,17H13.596z" style="" fill="#7adac0"></path><path d="M17.5,20c-0.276,0-0.5,0.224-0.5,0.5V23H1V7h5.5C6.776,7,7,6.776,7,6.5V1h10v11.5c0,0.276,0.224,0.5,0.5,0.5   s0.5-0.224,0.5-0.5v-12C18,0.224,17.776,0,17.5,0h-11C6.433,0,6.368,0.014,6.307,0.039C6.278,0.051,6.256,0.073,6.23,0.09   C6.202,0.108,6.17,0.122,6.146,0.146l-6,6C0.123,6.169,0.11,6.2,0.092,6.227c-0.018,0.027-0.041,0.05-0.053,0.08   C0.014,6.368,0,6.433,0,6.5v17C0,23.776,0.224,24,0.5,24h17c0.276,0,0.5-0.224,0.5-0.5v-3C18,20.224,17.776,20,17.5,20z M1.707,6   L6,1.707V6H1.707z" style="" fill="#7adac0"></path></g><desc>Created with Snap</desc><defs></defs></g><g><g transform="matrix(1.024,0,0,-1.024,0,0)"><path d="M300 -10Q260 -10 225 2Q191 15 165 37Q139 60 123 90L136 90L136 0L71 0L71 190L131 190Q135 149 156 117Q177 85 213 66Q249 48 297 48Q349 48 378 72Q407 97 407 143Q407 180 394 200Q381 221 351 232Q321 244 271 252L247 256Q166 270 117 309Q68 349 68 420Q68 470 90 504Q112 538 152 556Q192 574 245 574Q304 574 349 548Q394 522 410 477L389 477L389 563L453 563L453 404L394 404Q390 428 377 454Q364 480 334 498Q304 516 249 516Q197 516 169 491Q141 467 141 428Q141 385 172 362Q203 339 262 328L285 324Q351 313 394 294Q437 275 458 242Q480 209 480 155Q480 111 459 73Q438 36 398 13Q358 -10 300 -10ZM696 -11Q635 -11 598 23Q561 57 561 106Q561 151 582 178Q604 205 640 217Q676 229 719 229Q753 229 788 223Q824 218 858 209L828 204L828 257Q828 304 803 326Q778 348 735 348Q707 348 669 338Q632 329 600 312L578 360Q613 382 657 392Q701 403 736 403Q788 403 825 386Q862 369 881 337Q901 306 901 264L901 53L963 53L963 0L836 0L830 56L858 56Q819 22 782 5Q745 -11 696 -11ZM707 40Q744 40 781 56Q818 72 858 105L828 69L828 185L851 167Q825 175 792 180Q759 185 724 185Q689 185 660 169Q631 154 631 110Q631 80 651 60Q671 40 707 40ZM1220 0L1000 0L1000 53L1076 53L1076 340L1000 340L1000 393L1149 393L1149 339L1121 336Q1163 365 1205 384Q1247 403 1291 403Q1345 403 1382 369Q1420 336 1420 272L1420 53L1493 53L1493 0L1282 0L1282 53L1347 53L1347 258Q1347 299 1327 322Q1307 345 1272 345Q1236 345 1199 329Q1162 313 1120 285L1149 317L1149 53L1220 53L1220 0ZM1735 -10Q1673 -10 1624 17Q1576 44 1548 91Q1521 138 1521 199Q1521 260 1547 306Q1574 352 1620 378Q1667 404 1727 404Q1785 404 1823 378Q1861 352 1871 314L1857 314L1857 395L1919 395L1919 254L1863 254Q1854 297 1822 321Q1791 346 1744 346Q1701 346 1668 327Q1635 309 1616 276Q1598 243 1598 201Q1598 156 1616 121Q1635 87 1667 67Q1700 48 1742 48Q1795 48 1827 68Q1860 89 1887 120L1918 75Q1889 37 1843 13Q1797 -10 1735 -10ZM2187 0L1976 0L1976 53L2049 53L2049 521L1977 521L1977 573L2123 573L2123 335L2096 330Q2139 362 2182 382Q2225 403 2271 403Q2325 403 2363 369Q2401 336 2401 272L2401 53L2473 53L2473 0L2262 0L2262 53L2327 53L2327 258Q2327 299 2307 322Q2288 345 2253 345Q2215 345 2174 326Q2133 308 2098 281L2123 317L2123 53L2187 53L2187 0ZM2727 0L2507 0L2507 53L2583 53L2583 340L2508 340L2508 393L2656 393L2656 53L2727 53L2727 0ZM2610 479Q2588 479 2572 493Q2556 508 2556 530Q2556 552 2572 566Q2588 581 2610 581Q2633 581 2648 566Q2664 552 2664 530Q2664 508 2648 493Q2633 479 2610 479ZM3024 0L2951 0Q2895 0 2866 28Q2837 57 2837 116L2837 340L2772 340L2772 393L2837 393L2837 527L2911 556L2911 393L3015 393L3015 340L2911 340L2911 120Q2911 83 2923 68Q2935 53 2964 53L3024 53L3024 0ZM3635 0L3397 0L3397 53L3475 53L3475 510L3397 510L3397 563L3635 563L3635 510L3557 510L3557 295L3789 510L3725 510L3725 563L3958 563L3958 510L3884 510L3640 284L3888 53L3963 53L3963 0L3722 0L3722 53L3788 53L3557 267L3557 53L3635 53L3635 0ZM4245 0L4026 0L4026 53L4102 53L4102 340L4026 340L4026 393L4175 393L4175 276L4161 278Q4172 323 4189 349Q4207 375 4229 386Q4252 398 4276 398Q4296 398 4316 393Q4336 388 4356 378L4338 311Q4321 322 4304 327Q4287 333 4269 333Q4231 333 4203 301Q4176 270 4176 211L4175 53L4245 53L4245 0ZM4619 0L4399 0L4399 53L4475 53L4475 340L4400 340L4400 393L4548 393L4548 53L4619 53L4619 0ZM4502 479Q4480 479 4464 493Q4448 508 4448 530Q4448 552 4464 566Q4480 581 4502 581Q4525 581 4540 566Q4556 552 4556 530Q4556 508 4540 493Q4525 479 4502 479ZM4888 -10Q4857 -10 4828 -2Q4800 6 4779 20Q4758 34 4747 53L4762 44L4762 0L4704 0L4704 136L4756 136L4762 71L4748 118Q4759 81 4797 61Q4836 41 4878 41Q4916 41 4941 56Q4967 71 4967 98Q4967 130 4945 142Q4924 155 4877 165L4822 177Q4767 191 4735 214Q4703 238 4703 293Q4703 346 4744 374Q4786 403 4848 403Q4872 403 4898 396Q4925 390 4947 377Q4969 364 4978 345L4963 350L4963 395L5022 395L5022 260L4970 260L4957 355L4974 289Q4970 307 4951 320Q4933 334 4908 342Q4884 350 4860 350Q4828 350 4802 337Q4777 324 4777 295Q4777 273 4794 261Q4812 249 4852 239L4903 228Q4941 219 4971 206Q5002 194 5020 170Q5038 147 5038 104Q5038 65 5016 39Q4995 14 4960 2Q4926 -10 4888 -10ZM5299 0L5088 0L5088 53L5161 53L5161 521L5089 521L5089 573L5235 573L5235 335L5208 330Q5251 362 5294 382Q5337 403 5383 403Q5437 403 5475 369Q5513 336 5513 272L5513 53L5585 53L5585 0L5374 0L5374 53L5439 53L5439 258Q5439 299 5419 322Q5400 345 5365 345Q5327 345 5286 326Q5245 308 5210 281L5235 317L5235 53L5299 53L5299 0ZM5839 0L5619 0L5619 53L5695 53L5695 340L5619 340L5619 393L5768 393L5768 339L5740 336Q5782 365 5824 384Q5866 403 5910 403Q5964 403 6001 369Q6039 336 6039 272L6039 53L6112 53L6112 0L5901 0L5901 53L5966 53L5966 258Q5966 299 5946 322Q5926 345 5891 345Q5855 345 5818 329Q5781 313 5739 285L5768 317L5768 53L5839 53L5839 0ZM6288 -11Q6227 -11 6190 23Q6153 57 6153 106Q6153 151 6174 178Q6196 205 6232 217Q6268 229 6311 229Q6345 229 6380 223Q6416 218 6450 209L6420 204L6420 257Q6420 304 6395 326Q6370 348 6327 348Q6299 348 6261 338Q6224 329 6192 312L6170 360Q6205 382 6249 392Q6293 403 6328 403Q6380 403 6417 386Q6454 369 6473 337Q6493 306 6493 264L6493 53L6555 53L6555 0L6428 0L6422 56L6450 56Q6411 22 6374 5Q6337 -11 6288 -11ZM6299 40Q6336 40 6373 56Q6410 72 6450 105L6420 69L6420 185L6443 167Q6417 175 6384 180Q6351 185 6316 185Q6281 185 6252 169Q6223 154 6223 110Q6223 80 6243 60Q6263 40 6299 40Z" style="" fill="#210070"></path></g></g></g></svg>